<!-- Generated by IcoMoon.io -->
<svg version="1.1" xmlns="http://www.w3.org/2000/svg" width="16.5px" height="16.5px" viewBox="0 0 32 32">
<path fill="#fff" d="M13.383 14.937c-0.858 0-1.553-0.695-1.553-1.553v0c0-0.858 0.695-1.553 1.553-1.553h5.438c1.040 0 1.882 0.843 1.882 1.882v5.438c0 0.858-0.695 1.553-1.553 1.553v0c-0.858 0-1.553-0.695-1.553-1.553v-1.996l-3.549 3.549c-0.613 0.613-1.606 0.613-2.218 0v0c-0.613-0.613-0.613-1.606 0-2.218l3.549-3.549h-1.997z"></path>
<path fill="#000" d="M5.175 5.176c-1.534 1.534-2.685 3.267-3.452 5.199s-1.151 3.896-1.151 5.893c0 1.997 0.384 3.961 1.151 5.893s1.918 3.665 3.452 5.199c1.534 1.535 3.267 2.685 5.199 3.452s3.896 1.151 5.893 1.151 3.961-0.384 5.893-1.151c1.932-0.767 3.665-1.918 5.199-3.452s2.685-3.267 3.452-5.199c0.767-1.932 1.151-3.896 1.151-5.893s-0.384-3.961-1.151-5.893c-0.767-1.932-1.918-3.665-3.452-5.199s-3.268-2.685-5.199-3.452-3.896-1.151-5.892-1.151c-1.997 0-3.961 0.384-5.893 1.151s-3.665 1.918-5.199 3.452zM3.678 16.268c0-3.438 1.239-6.396 3.716-8.873s5.435-3.716 8.873-3.716c3.438 0 6.396 1.239 8.874 3.716s3.716 5.435 3.716 8.873c0 3.439-1.239 6.396-3.716 8.873s-5.435 3.716-8.873 3.716-6.396-1.239-8.873-3.716c-2.477-2.477-3.716-5.435-3.716-8.873z"></path>
<path fill="#000" d="M7.394 7.394c-2.477 2.477-3.716 5.435-3.716 8.873s1.239 6.396 3.716 8.873 5.435 3.716 8.873 3.716c3.439 0 6.396-1.239 8.873-3.716s3.716-5.435 3.716-8.873c0-3.438-1.239-6.396-3.716-8.873s-5.435-3.716-8.874-3.716-6.396 1.239-8.873 3.716zM13.383 14.937c-0.858 0-1.553-0.695-1.553-1.553v0c0-0.858 0.695-1.553 1.553-1.553h5.438c1.040 0 1.882 0.843 1.882 1.882v5.438c0 0.858-0.695 1.553-1.553 1.553v0c-0.858 0-1.553-0.695-1.553-1.553v-1.996l-3.549 3.549c-0.613 0.613-1.606 0.613-2.218 0v0c-0.613-0.613-0.613-1.606 0-2.218l3.549-3.549h-1.997z"></path>
</svg>
