<!-- Generated by IcoMoon.io -->
<svg version="1.1" xmlns="http://www.w3.org/2000/svg" width="16.5px" height="16.5px" viewBox="0 0 1024 1024">
<g id="icomoon-ignore">
</g>
<path fill="#000" d="M428.269 477.966c-27.444 0-49.691-22.247-49.691-49.692s22.247-49.691 49.691-49.691h174.025c33.266 0 60.233 26.968 60.233 60.235v174.028c0 27.443-22.245 49.688-49.688 49.688-27.446 0-49.693-22.245-49.693-49.688v-63.892l-113.581 113.58c-19.603 19.601-51.386 19.601-70.988 0s-19.603-51.387 0-70.987l113.581-113.581h-63.89z"></path>
<path fill="#fff" d="M165.614 165.619c-49.1 49.1-85.925 104.559-110.475 166.378s-36.825 124.673-36.825 188.562c0 63.889 12.275 126.742 36.825 188.561s61.375 117.278 110.475 166.376c49.1 49.104 104.559 85.926 166.378 110.478s124.673 36.828 188.562 36.828c63.889 0 126.74-12.276 188.56-36.828s117.278-61.374 166.382-110.478c49.098-49.098 85.926-104.556 110.472-166.376 24.552-61.819 36.828-124.672 36.828-188.561s-12.276-126.743-36.828-188.562c-24.546-61.819-61.374-117.278-110.472-166.378-49.104-49.1-104.562-85.925-166.382-110.475s-124.671-36.825-188.56-36.825c-63.889 0-126.743 12.275-188.562 36.825s-117.278 61.375-166.378 110.475zM117.697 520.559c0-110.031 39.635-204.682 118.905-283.952s173.92-118.904 283.952-118.904c110.031 0 204.685 39.635 283.955 118.904s118.904 173.921 118.904 283.952c0 110.032-39.635 204.68-118.904 283.95s-173.923 118.904-283.955 118.904c-110.031 0-204.682-39.635-283.952-118.904s-118.904-173.917-118.904-283.95z"></path>
<path fill="#fff" d="M236.602 236.607c-79.27 79.27-118.905 173.921-118.905 283.952 0 110.032 39.635 204.68 118.904 283.95s173.921 118.904 283.952 118.904c110.031 0 204.685-39.635 283.955-118.904s118.904-173.917 118.904-283.95c0-110.031-39.635-204.682-118.904-283.952s-173.923-118.904-283.955-118.904c-110.031 0-204.682 39.635-283.952 118.904zM428.269 477.966c-27.444 0-49.691-22.247-49.691-49.692s22.247-49.691 49.691-49.691h174.025c33.266 0 60.233 26.968 60.233 60.235v174.028c0 27.443-22.245 49.688-49.688 49.688-27.446 0-49.693-22.245-49.693-49.688v-63.892l-113.581 113.58c-19.603 19.601-51.386 19.601-70.988 0s-19.603-51.387 0-70.987l113.581-113.581h-63.89z"></path>
</svg>
