<!-- Generated by IcoMoon.io -->
<svg version="1.1" xmlns="http://www.w3.org/2000/svg" width="17" height="17" viewBox="0 0 32 32">
<path fill="#fff" d="M16 0c8.837 0 16 7.163 16 16s-7.163 16-16 16c-8.837 0-16-7.163-16-16s7.163-16 16-16z"></path>
<path fill="none" stroke="#000" stroke-linejoin="round" stroke-linecap="round" stroke-miterlimit="4" stroke-width="1.6" d="M12 14.4v3.2h2.4v5.6h3.2v-5.6h2.4l0.8-3.2h-3.2v-1.6c0-0.212 0.084-0.416 0.234-0.566s0.354-0.234 0.566-0.234h2.4v-3.2h-2.4c-1.061 0-2.078 0.421-2.828 1.172s-1.172 1.768-1.172 2.828v1.6h-2.4z"></path>
</svg>
