<!-- Generated by IcoMoon.io -->
<svg version="1.1" xmlns="http://www.w3.org/2000/svg" width="31" height="32" viewBox="0 0 31 32">
<path fill="none" stroke="#fff" stroke-linejoin="round" stroke-linecap="round" stroke-miterlimit="4" stroke-width="2.56" d="M23.040 8.32v0.013"></path>
<path fill="none" stroke="#fff" stroke-linejoin="round" stroke-linecap="round" stroke-miterlimit="4" stroke-width="2.56" d="M23.040 17.28l-4.48-6.4c-0.431-0.779-0.652-1.658-0.64-2.549s0.257-1.763 0.709-2.53c0.452-0.767 1.097-1.403 1.871-1.845s1.649-0.674 2.54-0.674c0.891 0 1.766 0.232 2.54 0.674s1.418 1.078 1.871 1.845c0.452 0.767 0.697 1.64 0.709 2.53s-0.208 1.769-0.64 2.549l-4.48 6.4z"></path>
<path fill="none" stroke="#fff" stroke-linejoin="round" stroke-linecap="round" stroke-miterlimit="4" stroke-width="2.56" d="M13.44 6.72l-1.92-0.96-7.68 3.84v16.64l7.68-3.84 7.68 3.84 7.68-3.84v-2.56"></path>
<path fill="none" stroke="#fff" stroke-linejoin="round" stroke-linecap="round" stroke-miterlimit="4" stroke-width="2.56" d="M11.52 5.76v16.64"></path>
<path fill="none" stroke="#fff" stroke-linejoin="round" stroke-linecap="round" stroke-miterlimit="4" stroke-width="2.56" d="M19.2 19.84v6.4"></path>
</svg>
