<!-- Generated by IcoMoon.io -->
<svg version="1.1" xmlns="http://www.w3.org/2000/svg" width="32" height="32" viewBox="0 0 32 32">
<path fill="#fff" d="M16 0c8.837 0 16 7.163 16 16s-7.163 16-16 16c-8.837 0-16-7.163-16-16s7.163-16 16-16z"></path>
<path fill="none" stroke="#000" stroke-linejoin="round" stroke-linecap="round" stroke-miterlimit="4" stroke-width="1.6" d="M19.2 9.6h-6.4c-1.767 0-3.2 1.433-3.2 3.2v6.4c0 1.767 1.433 3.2 3.2 3.2h6.4c1.767 0 3.2-1.433 3.2-3.2v-6.4c0-1.767-1.433-3.2-3.2-3.2z"></path>
<path fill="none" stroke="#000" stroke-linejoin="round" stroke-linecap="round" stroke-miterlimit="4" stroke-width="1.6" d="M16 18.4c1.325 0 2.4-1.074 2.4-2.4s-1.075-2.4-2.4-2.4c-1.326 0-2.4 1.074-2.4 2.4s1.074 2.4 2.4 2.4z"></path>
<path fill="none" stroke="#000" stroke-linejoin="round" stroke-linecap="round" stroke-miterlimit="4" stroke-width="1.6" d="M19.6 12.4v0"></path>
</svg>
