<!-- Generated by IcoMoon.io -->
<svg version="1.1" xmlns="http://www.w3.org/2000/svg" width="33" height="2" viewBox="0 0 528 32">
<path d="M152 16c0 8.836-7.163 16-16 16h-112c-8.837 0-16-7.164-16-16s7.163-16 16-16h112c8.837 0 16 7.163 16 16zM312 16c0 8.836-7.163 16-16 16h-64c-8.837 0-16-7.164-16-16s7.163-16 16-16h64c8.837 0 16 7.163 16 16zM376 16c0 8.836 7.163 16 16 16h16c8.837 0 16-7.164 16-16s-7.163-16-16-16h-16c-8.837 0-16 7.163-16 16z"></path>
<path d="M520 16c0 8.836-7.163 16-16 16s-16-7.164-16-16c0-8.837 7.163-16 16-16s16 7.163 16 16z"></path>
</svg>
