<!-- Generated by IcoMoon.io -->
<svg version="1.1" xmlns="http://www.w3.org/2000/svg" width="10" height="10" viewBox="0 0 32 32">
<path fill="#fff" d="M21.867 18.667c-1.767 0-3.2 1.433-3.2 3.2v4.8c0 1.473-1.194 2.667-2.667 2.667s-2.667-1.194-2.667-2.667v-4.8c0-1.767-1.433-3.2-3.2-3.2h-4.8c-1.473 0-2.667-1.194-2.667-2.667s1.194-2.667 2.667-2.667h4.8c1.767 0 3.2-1.433 3.2-3.2v-4.8c0-1.473 1.194-2.667 2.667-2.667s2.667 1.194 2.667 2.667v4.8c0 1.767 1.433 3.2 3.2 3.2h4.8c1.473 0 2.667 1.194 2.667 2.667s-1.194 2.667-2.667 2.667h-4.8z"></path>
</svg>
