<!-- Generated by IcoMoon.io -->
<svg version="1.1" xmlns="http://www.w3.org/2000/svg" width="16.7" height="16.7" viewBox="0 0 32 32">
<path fill="#000" d="M14.588 12.706c-0.606-0.606-0.606-1.59 0-2.196v0c0.606-0.606 1.59-0.606 2.196 0l3.846 3.845c0.735 0.735 0.735 1.927 0 2.662l-3.846 3.845c-0.606 0.607-1.59 0.607-2.196 0v0c-0.606-0.606-0.606-1.59 0-2.196l1.412-1.412h-5.020c-0.866 0-1.569-0.702-1.569-1.569v0c0-0.866 0.702-1.569 1.569-1.569h5.020l-1.412-1.412z"></path>
<path fill="#fff" d="M15.686 0c-2.17 0-4.209 0.412-6.118 1.235s-3.569 1.941-4.98 3.353c-1.412 1.412-2.529 3.072-3.353 4.98s-1.235 3.948-1.235 6.118c0 2.17 0.412 4.209 1.235 6.118s1.941 3.569 3.353 4.981c1.412 1.412 3.072 2.529 4.98 3.353s3.948 1.235 6.118 1.235c2.17 0 4.209-0.412 6.118-1.235s3.569-1.941 4.981-3.353c1.412-1.412 2.529-3.072 3.353-4.981s1.235-3.948 1.235-6.118c0-2.17-0.412-4.209-1.235-6.118s-1.941-3.569-3.353-4.98c-1.412-1.412-3.072-2.529-4.981-3.353s-3.948-1.235-6.118-1.235zM6.784 6.784c2.431-2.431 5.399-3.647 8.902-3.647s6.471 1.216 8.902 3.647 3.647 5.399 3.647 8.902c0 3.503-1.216 6.471-3.647 8.902s-5.399 3.647-8.902 3.647c-3.503 0-6.471-1.216-8.902-3.647s-3.647-5.399-3.647-8.902c0-3.503 1.216-6.471 3.647-8.902z"></path>
<path fill="#fff" d="M15.686 3.137c-3.503 0-6.471 1.216-8.902 3.647s-3.647 5.399-3.647 8.902c0 3.503 1.216 6.471 3.647 8.902s5.399 3.647 8.902 3.647c3.503 0 6.471-1.216 8.902-3.647s3.647-5.399 3.647-8.902c0-3.503-1.216-6.471-3.647-8.902s-5.399-3.647-8.902-3.647zM14.588 12.706c-0.606-0.606-0.606-1.59 0-2.196v0c0.606-0.606 1.59-0.606 2.196 0l3.846 3.845c0.735 0.735 0.735 1.927 0 2.662l-3.846 3.845c-0.606 0.607-1.59 0.607-2.196 0v0c-0.606-0.606-0.606-1.59 0-2.196l1.412-1.412h-5.020c-0.866 0-1.569-0.702-1.569-1.569v0c0-0.866 0.702-1.569 1.569-1.569h5.020l-1.412-1.412z"></path>
</svg>
