<!-- Generated by IcoMoon.io -->
<svg version="1.1" xmlns="http://www.w3.org/2000/svg" width="16.7" height="16.7" viewBox="0 0 32 32">
<path fill="#fff" d="M14.963 13.185c-0.573-0.573-0.573-1.501 0-2.074s1.501-0.573 2.074 0l3.632 3.632c0.694 0.694 0.694 1.82 0 2.514l-3.632 3.632c-0.573 0.573-1.501 0.573-2.074 0s-0.573-1.501 0-2.074l1.333-1.333h-4.741c-0.818 0-1.481-0.663-1.481-1.481s0.663-1.482 1.481-1.482h4.741l-1.333-1.333z"></path>
<path fill="#000" d="M16 1.185c-2.049 0-3.975 0.389-5.778 1.167s-3.37 1.833-4.704 3.167c-1.333 1.333-2.389 2.901-3.167 4.704s-1.167 3.728-1.167 5.778c0 2.049 0.389 3.975 1.167 5.778s1.833 3.37 3.167 4.704c1.333 1.333 2.901 2.389 4.704 3.167s3.728 1.167 5.778 1.167c2.049 0 3.975-0.389 5.778-1.167s3.37-1.833 4.704-3.167 2.389-2.901 3.167-4.704c0.778-1.802 1.167-3.728 1.167-5.778s-0.389-3.975-1.167-5.778c-0.778-1.802-1.833-3.37-3.167-4.704s-2.901-2.389-4.704-3.167c-1.802-0.778-3.729-1.167-5.778-1.167zM7.592 7.592c2.296-2.296 5.099-3.444 8.407-3.444s6.111 1.148 8.407 3.444c2.296 2.296 3.444 5.099 3.444 8.407s-1.148 6.111-3.444 8.407-5.099 3.444-8.407 3.444c-3.309 0-6.111-1.148-8.407-3.444s-3.444-5.099-3.444-8.407c0-3.309 1.148-6.111 3.444-8.407z"></path>
<path fill="#000" d="M16 4.148c-3.309 0-6.111 1.148-8.407 3.444s-3.444 5.099-3.444 8.407c0 3.309 1.148 6.111 3.444 8.407s5.099 3.444 8.407 3.444c3.309 0 6.111-1.148 8.407-3.444s3.444-5.099 3.444-8.407c0-3.309-1.148-6.111-3.444-8.407s-5.099-3.444-8.407-3.444zM14.963 13.185c-0.573-0.573-0.573-1.501 0-2.074s1.501-0.573 2.074 0l3.632 3.632c0.694 0.694 0.694 1.82 0 2.514l-3.632 3.632c-0.573 0.573-1.501 0.573-2.074 0s-0.573-1.501 0-2.074l1.333-1.333h-4.741c-0.818 0-1.481-0.663-1.481-1.481s0.663-1.482 1.481-1.482h4.741l-1.333-1.333z"></path>
</svg>
