<!-- Generated by IcoMoon.io -->
<svg version="1.1" xmlns="http://www.w3.org/2000/svg" width="32" height="32" viewBox="0 0 32 32">
<path fill="#fff" d="M16 0c8.837 0 16 7.163 16 16s-7.163 16-16 16c-8.837 0-16-7.163-16-16s7.163-16 16-16z"></path>
<path fill="#fff" d="M16.904 15.081l4.318-5.081h-1.023l-3.75 4.412-2.995-4.412h-3.454l4.529 6.672-4.529 5.328h1.023l3.96-4.659 3.163 4.659h3.454l-4.696-6.919zM15.502 16.73l-4.11-5.951h1.572l7.235 10.476h-1.572l-3.125-4.525z"></path>
<path fill="#000" d="M16.904 15.081v1.6h0.74l0.479-0.564-1.219-1.036zM21.222 10l1.219 1.036 2.24-2.636h-3.46v1.6zM20.199 10v-1.6h-0.74l-0.479 0.564 1.219 1.036zM16.449 14.412l-1.324 0.899 1.181 1.74 1.362-1.602-1.219-1.036zM13.454 10l1.324-0.899-0.476-0.701h-0.848v1.6zM10 10v-1.6h-3.020l1.696 2.499 1.324-0.899zM14.529 16.672l1.219 1.036 0.788-0.928-0.684-1.007-1.324 0.899zM10 22l-1.219-1.036-2.241 2.636h3.46v-1.6zM11.023 22v1.6h0.74l0.479-0.564-1.219-1.036zM14.983 17.341l1.324-0.899-1.181-1.74-1.362 1.602 1.219 1.036zM18.146 22l-1.324 0.899 0.476 0.701h0.848v-1.6zM21.6 22v1.6h3.020l-1.696-2.499-1.324 0.899zM16.903 15.081v-1.6h-3.020l1.696 2.499 1.324-0.899zM15.502 16.73h1.6v-0.499l-0.284-0.41-1.316 0.909zM15.043 16.066v0zM11.392 10.78v-1.6h-3.050l1.733 2.509 1.316-0.909zM12.964 10.78l1.317-0.909-0.477-0.691h-0.84v1.6zM15.91 15.046v0zM16.369 15.71v0zM20.199 21.256v1.6h3.050l-1.733-2.509-1.316 0.909zM18.627 21.256l-1.317 0.909 0.477 0.691h0.839v-1.6zM15.502 16.731h-1.6v0.499l0.284 0.41 1.316-0.909zM18.123 16.117l4.318-5.081-2.438-2.072-4.318 5.081 2.438 2.072zM21.222 8.4h-1.023v3.2h1.023v-3.2zM18.979 8.964l-3.75 4.412 2.438 2.072 3.75-4.412-2.438-2.072zM17.773 13.513l-2.995-4.412-2.648 1.797 2.995 4.412 2.648-1.797zM13.454 8.4h-3.454v3.2h3.454v-3.2zM8.676 10.899l4.529 6.672 2.648-1.797-4.529-6.672-2.648 1.797zM13.31 15.635l-4.529 5.328 2.438 2.072 4.529-5.328-2.438-2.072zM10 23.6h1.023v-3.2h-1.023v3.2zM12.243 23.036l3.96-4.659-2.438-2.072-3.96 4.659 2.438 2.072zM13.659 18.24l3.163 4.659 2.648-1.797-3.163-4.659-2.648 1.797zM18.146 23.6h3.454v-3.2h-3.454v3.2zM22.924 21.101l-4.697-6.919-2.648 1.797 4.697 6.919 2.648-1.797zM16.903 16.681h0v-3.2h-0v3.2zM16.818 15.821l-0.459-0.664-2.633 1.819 0.459 0.664 2.633-1.819zM16.36 15.157l-3.651-5.286-2.633 1.818 3.651 5.286 2.633-1.818zM11.392 12.38h1.572v-3.2h-1.572v3.2zM11.647 11.689l2.946 4.266 2.633-1.818-2.946-4.266-2.633 1.818zM14.594 15.955l0.459 0.664 2.633-1.819-0.459-0.664-2.633 1.819zM15.053 16.62l3.83 5.545 2.633-1.819-3.83-5.545-2.633 1.819zM20.199 19.656h-1.572v3.2h1.572v-3.2zM19.944 20.346l-3.125-4.525-2.633 1.819 3.125 4.525 2.633-1.819zM17.102 16.731v0z"></path>
</svg>
