<svg aria-hidden="true" style="position: absolute; width: 0; height: 0; overflow: hidden;" version="1.1" xmlns="http://www.w3.org/2000/svg" xmlns:xlink="http://www.w3.org/1999/xlink">
<defs>
<symbol id="icon-arrow_circle_left_black" viewBox="0 0 32 32">
<path fill="#fff" style="fill: var(--color1, #fff)" d="M13.383 14.937c-0.858 0-1.553-0.695-1.553-1.553v0c0-0.858 0.695-1.553 1.553-1.553h5.438c1.040 0 1.882 0.843 1.882 1.882v5.438c0 0.858-0.695 1.553-1.553 1.553v0c-0.858 0-1.553-0.695-1.553-1.553v-1.996l-3.549 3.549c-0.613 0.613-1.606 0.613-2.218 0v0c-0.613-0.613-0.613-1.606 0-2.218l3.549-3.549h-1.997z"></path>
<path fill="#000" style="fill: var(--color2, #000)" d="M5.175 5.176c-1.534 1.534-2.685 3.267-3.452 5.199s-1.151 3.896-1.151 5.893c0 1.997 0.384 3.961 1.151 5.893s1.918 3.665 3.452 5.199c1.534 1.535 3.267 2.685 5.199 3.452s3.896 1.151 5.893 1.151 3.961-0.384 5.893-1.151c1.932-0.767 3.665-1.918 5.199-3.452s2.685-3.267 3.452-5.199c0.767-1.932 1.151-3.896 1.151-5.893s-0.384-3.961-1.151-5.893c-0.767-1.932-1.918-3.665-3.452-5.199s-3.268-2.685-5.199-3.452-3.896-1.151-5.892-1.151c-1.997 0-3.961 0.384-5.893 1.151s-3.665 1.918-5.199 3.452zM3.678 16.268c0-3.438 1.239-6.396 3.716-8.873s5.435-3.716 8.873-3.716c3.438 0 6.396 1.239 8.874 3.716s3.716 5.435 3.716 8.873c0 3.439-1.239 6.396-3.716 8.873s-5.435 3.716-8.873 3.716-6.396-1.239-8.873-3.716c-2.477-2.477-3.716-5.435-3.716-8.873z"></path>
<path fill="#000" style="fill: var(--color2, #000)" d="M7.394 7.394c-2.477 2.477-3.716 5.435-3.716 8.873s1.239 6.396 3.716 8.873 5.435 3.716 8.873 3.716c3.439 0 6.396-1.239 8.873-3.716s3.716-5.435 3.716-8.873c0-3.438-1.239-6.396-3.716-8.873s-5.435-3.716-8.874-3.716-6.396 1.239-8.873 3.716zM13.383 14.937c-0.858 0-1.553-0.695-1.553-1.553v0c0-0.858 0.695-1.553 1.553-1.553h5.438c1.040 0 1.882 0.843 1.882 1.882v5.438c0 0.858-0.695 1.553-1.553 1.553v0c-0.858 0-1.553-0.695-1.553-1.553v-1.996l-3.549 3.549c-0.613 0.613-1.606 0.613-2.218 0v0c-0.613-0.613-0.613-1.606 0-2.218l3.549-3.549h-1.997z"></path>
</symbol>
<symbol id="icon-education_arrow_circle_left" viewBox="0 0 32 32">
<path d="M14.588 12.706c-0.606-0.606-0.606-1.59 0-2.196v0c0.606-0.606 1.59-0.606 2.196 0l3.846 3.845c0.735 0.735 0.735 1.927 0 2.662l-3.846 3.845c-0.606 0.607-1.59 0.607-2.196 0v0c-0.606-0.606-0.606-1.59 0-2.196l1.412-1.412h-5.020c-0.866 0-1.569-0.702-1.569-1.569v0c0-0.866 0.702-1.569 1.569-1.569h5.020l-1.412-1.412z"></path>
</symbol>
<symbol id="icon-education_arrow_circle_left_white" viewBox="0 0 32 32">
<path fill="#fff" style="fill: var(--color1, #fff)" d="M14.588 12.706c-0.606-0.606-0.606-1.59 0-2.196v0c0.606-0.606 1.59-0.606 2.196 0l3.846 3.845c0.735 0.735 0.735 1.927 0 2.662l-3.846 3.845c-0.606 0.607-1.59 0.607-2.196 0v0c-0.606-0.606-0.606-1.59 0-2.196l1.412-1.412h-5.020c-0.866 0-1.569-0.702-1.569-1.569v0c0-0.866 0.702-1.569 1.569-1.569h5.020l-1.412-1.412z"></path>
</symbol>
<symbol id="icon-Facebook-icon" viewBox="0 0 32 32">
<path fill="#fff" style="fill: var(--color1, #fff)" d="M16 0c8.837 0 16 7.163 16 16s-7.163 16-16 16c-8.837 0-16-7.163-16-16s7.163-16 16-16z"></path>
<path fill="none" stroke="#000" style="stroke: var(--color2, #000)" stroke-linejoin="round" stroke-linecap="round" stroke-miterlimit="4" stroke-width="1.6" d="M12 14.4v3.2h2.4v5.6h3.2v-5.6h2.4l0.8-3.2h-3.2v-1.6c0-0.212 0.084-0.416 0.234-0.566s0.354-0.234 0.566-0.234h2.4v-3.2h-2.4c-1.061 0-2.078 0.421-2.828 1.172s-1.172 1.768-1.172 2.828v1.6h-2.4z"></path>
</symbol>
<symbol id="icon-Footer-call" viewBox="0 0 31 32">
<path fill="none" stroke="#fff" style="stroke: var(--color1, #fff)" stroke-linejoin="round" stroke-linecap="round" stroke-miterlimit="4" stroke-width="2.56" d="M6.4 5.76h5.12l2.56 6.4-3.2 1.92c1.371 2.78 3.62 5.029 6.4 6.4l1.92-3.2 6.4 2.56v5.12c0 0.679-0.27 1.33-0.75 1.81s-1.131 0.75-1.81 0.75c-4.993-0.303-9.702-2.424-13.239-5.961s-5.657-8.246-5.961-13.239c0-0.679 0.27-1.33 0.75-1.81s1.131-0.75 1.81-0.75z"></path>
</symbol>
<symbol id="icon-Footer-email" viewBox="0 0 31 32">
<path fill="none" stroke="#fff" style="stroke: var(--color1, #fff)" stroke-linejoin="round" stroke-linecap="round" stroke-miterlimit="4" stroke-width="2.56" d="M24.32 7.040h-17.92c-1.414 0-2.56 1.146-2.56 2.56v12.8c0 1.414 1.146 2.56 2.56 2.56h17.92c1.414 0 2.56-1.146 2.56-2.56v-12.8c0-1.414-1.146-2.56-2.56-2.56z"></path>
<path fill="none" stroke="#fff" style="stroke: var(--color1, #fff)" stroke-linejoin="round" stroke-linecap="round" stroke-miterlimit="4" stroke-width="2.56" d="M3.84 9.6l11.52 7.68 11.52-7.68"></path>
</symbol>
<symbol id="icon-Footer-map" viewBox="0 0 31 32">
<path fill="none" stroke="#fff" style="stroke: var(--color1, #fff)" stroke-linejoin="round" stroke-linecap="round" stroke-miterlimit="4" stroke-width="2.56" d="M23.040 8.32v0.013"></path>
<path fill="none" stroke="#fff" style="stroke: var(--color1, #fff)" stroke-linejoin="round" stroke-linecap="round" stroke-miterlimit="4" stroke-width="2.56" d="M23.040 17.28l-4.48-6.4c-0.431-0.779-0.652-1.658-0.64-2.549s0.257-1.763 0.709-2.53c0.452-0.767 1.097-1.403 1.871-1.845s1.649-0.674 2.54-0.674c0.891 0 1.766 0.232 2.54 0.674s1.418 1.078 1.871 1.845c0.452 0.767 0.697 1.64 0.709 2.53s-0.208 1.769-0.64 2.549l-4.48 6.4z"></path>
<path fill="none" stroke="#fff" style="stroke: var(--color1, #fff)" stroke-linejoin="round" stroke-linecap="round" stroke-miterlimit="4" stroke-width="2.56" d="M13.44 6.72l-1.92-0.96-7.68 3.84v16.64l7.68-3.84 7.68 3.84 7.68-3.84v-2.56"></path>
<path fill="none" stroke="#fff" style="stroke: var(--color1, #fff)" stroke-linejoin="round" stroke-linecap="round" stroke-miterlimit="4" stroke-width="2.56" d="M11.52 5.76v16.64"></path>
<path fill="none" stroke="#fff" style="stroke: var(--color1, #fff)" stroke-linejoin="round" stroke-linecap="round" stroke-miterlimit="4" stroke-width="2.56" d="M19.2 19.84v6.4"></path>
</symbol>
<symbol id="icon-Forward" viewBox="0 0 32 32">
<path stroke-linejoin="round" stroke-linecap="round" stroke-miterlimit="4" stroke-width="5.8182" d="M27.228 6.055l-22.627 22.627M27.228 6.055l-19.982-0.588M27.228 6.055l0.588 19.982"></path>
</symbol>
<symbol id="icon-Forward_white" viewBox="0 0 32 32">
<path fill="none" stroke="#fff" style="stroke: var(--color1, #fff)" stroke-linejoin="round" stroke-linecap="round" stroke-miterlimit="4" stroke-width="5.8182" d="M27.228 6.055l-22.627 22.627M27.228 6.055l-19.982-0.588M27.228 6.055l0.588 19.982"></path>
</symbol>
<symbol id="icon-Instagram-icon" viewBox="0 0 32 32">
<path fill="#fff" style="fill: var(--color1, #fff)" d="M16 0c8.837 0 16 7.163 16 16s-7.163 16-16 16c-8.837 0-16-7.163-16-16s7.163-16 16-16z"></path>
<path fill="none" stroke="#000" style="stroke: var(--color2, #000)" stroke-linejoin="round" stroke-linecap="round" stroke-miterlimit="4" stroke-width="1.6" d="M19.2 9.6h-6.4c-1.767 0-3.2 1.433-3.2 3.2v6.4c0 1.767 1.433 3.2 3.2 3.2h6.4c1.767 0 3.2-1.433 3.2-3.2v-6.4c0-1.767-1.433-3.2-3.2-3.2z"></path>
<path fill="none" stroke="#000" style="stroke: var(--color2, #000)" stroke-linejoin="round" stroke-linecap="round" stroke-miterlimit="4" stroke-width="1.6" d="M16 18.4c1.325 0 2.4-1.074 2.4-2.4s-1.075-2.4-2.4-2.4c-1.326 0-2.4 1.074-2.4 2.4s1.074 2.4 2.4 2.4z"></path>
<path fill="none" stroke="#000" style="stroke: var(--color2, #000)" stroke-linejoin="round" stroke-linecap="round" stroke-miterlimit="4" stroke-width="1.6" d="M19.6 12.4v0"></path>
</symbol>
<symbol id="icon-Line_sixth" viewBox="0 0 528 32">
<path d="M152 16c0 8.836-7.163 16-16 16h-112c-8.837 0-16-7.164-16-16s7.163-16 16-16h112c8.837 0 16 7.163 16 16zM312 16c0 8.836-7.163 16-16 16h-64c-8.837 0-16-7.164-16-16s7.163-16 16-16h64c8.837 0 16 7.163 16 16zM376 16c0 8.836 7.163 16 16 16h16c8.837 0 16-7.164 16-16s-7.163-16-16-16h-16c-8.837 0-16 7.163-16 16z"></path>
<path d="M520 16c0 8.836-7.163 16-16 16s-16-7.164-16-16c0-8.837 7.163-16 16-16s16 7.163 16 16z"></path>
</symbol>
<symbol id="icon-plus_symbol" viewBox="0 0 32 32">
<path fill="#fff" style="fill: var(--color1, #fff)" d="M21.867 18.667c-1.767 0-3.2 1.433-3.2 3.2v4.8c0 1.473-1.194 2.667-2.667 2.667s-2.667-1.194-2.667-2.667v-4.8c0-1.767-1.433-3.2-3.2-3.2h-4.8c-1.473 0-2.667-1.194-2.667-2.667s1.194-2.667 2.667-2.667h4.8c1.767 0 3.2-1.433 3.2-3.2v-4.8c0-1.473 1.194-2.667 2.667-2.667s2.667 1.194 2.667 2.667v4.8c0 1.767 1.433 3.2 3.2 3.2h4.8c1.473 0 2.667 1.194 2.667 2.667s-1.194 2.667-2.667 2.667h-4.8z"></path>
</symbol>
<symbol id="icon-read_more_circle_left" viewBox="0 0 32 32">
<path fill="#fff" style="fill: var(--color1, #fff)" d="M14.963 13.185c-0.573-0.573-0.573-1.501 0-2.074s1.501-0.573 2.074 0l3.632 3.632c0.694 0.694 0.694 1.82 0 2.514l-3.632 3.632c-0.573 0.573-1.501 0.573-2.074 0s-0.573-1.501 0-2.074l1.333-1.333h-4.741c-0.818 0-1.481-0.663-1.481-1.481s0.663-1.482 1.481-1.482h4.741l-1.333-1.333z"></path>
<path fill="#000" style="fill: var(--color2, #000)" d="M16 1.185c-2.049 0-3.975 0.389-5.778 1.167s-3.37 1.833-4.704 3.167c-1.333 1.333-2.389 2.901-3.167 4.704s-1.167 3.728-1.167 5.778c0 2.049 0.389 3.975 1.167 5.778s1.833 3.37 3.167 4.704c1.333 1.333 2.901 2.389 4.704 3.167s3.728 1.167 5.778 1.167c2.049 0 3.975-0.389 5.778-1.167s3.37-1.833 4.704-3.167 2.389-2.901 3.167-4.704c0.778-1.802 1.167-3.728 1.167-5.778s-0.389-3.975-1.167-5.778c-0.778-1.802-1.833-3.37-3.167-4.704s-2.901-2.389-4.704-3.167c-1.802-0.778-3.729-1.167-5.778-1.167zM7.592 7.592c2.296-2.296 5.099-3.444 8.407-3.444s6.111 1.148 8.407 3.444c2.296 2.296 3.444 5.099 3.444 8.407s-1.148 6.111-3.444 8.407-5.099 3.444-8.407 3.444c-3.309 0-6.111-1.148-8.407-3.444s-3.444-5.099-3.444-8.407c0-3.309 1.148-6.111 3.444-8.407z"></path>
<path fill="#000" style="fill: var(--color2, #000)" d="M16 4.148c-3.309 0-6.111 1.148-8.407 3.444s-3.444 5.099-3.444 8.407c0 3.309 1.148 6.111 3.444 8.407s5.099 3.444 8.407 3.444c3.309 0 6.111-1.148 8.407-3.444s3.444-5.099 3.444-8.407c0-3.309-1.148-6.111-3.444-8.407s-5.099-3.444-8.407-3.444zM14.963 13.185c-0.573-0.573-0.573-1.501 0-2.074s1.501-0.573 2.074 0l3.632 3.632c0.694 0.694 0.694 1.82 0 2.514l-3.632 3.632c-0.573 0.573-1.501 0.573-2.074 0s-0.573-1.501 0-2.074l1.333-1.333h-4.741c-0.818 0-1.481-0.663-1.481-1.481s0.663-1.482 1.481-1.482h4.741l-1.333-1.333z"></path>
</symbol>
<symbol id="icon-read_more_circle_left_white" viewBox="0 0 32 32">
<path fill="#000" style="fill: var(--color2, #000)" d="M14.588 12.706c-0.606-0.606-0.606-1.59 0-2.196v0c0.606-0.606 1.59-0.606 2.196 0l3.846 3.845c0.735 0.735 0.735 1.927 0 2.662l-3.846 3.845c-0.606 0.607-1.59 0.607-2.196 0v0c-0.606-0.606-0.606-1.59 0-2.196l1.412-1.412h-5.020c-0.866 0-1.569-0.702-1.569-1.569v0c0-0.866 0.702-1.569 1.569-1.569h5.020l-1.412-1.412z"></path>
<path fill="#fff" style="fill: var(--color1, #fff)" d="M15.686 0c-2.17 0-4.209 0.412-6.118 1.235s-3.569 1.941-4.98 3.353c-1.412 1.412-2.529 3.072-3.353 4.98s-1.235 3.948-1.235 6.118c0 2.17 0.412 4.209 1.235 6.118s1.941 3.569 3.353 4.981c1.412 1.412 3.072 2.529 4.98 3.353s3.948 1.235 6.118 1.235c2.17 0 4.209-0.412 6.118-1.235s3.569-1.941 4.981-3.353c1.412-1.412 2.529-3.072 3.353-4.981s1.235-3.948 1.235-6.118c0-2.17-0.412-4.209-1.235-6.118s-1.941-3.569-3.353-4.98c-1.412-1.412-3.072-2.529-4.981-3.353s-3.948-1.235-6.118-1.235zM6.784 6.784c2.431-2.431 5.399-3.647 8.902-3.647s6.471 1.216 8.902 3.647 3.647 5.399 3.647 8.902c0 3.503-1.216 6.471-3.647 8.902s-5.399 3.647-8.902 3.647c-3.503 0-6.471-1.216-8.902-3.647s-3.647-5.399-3.647-8.902c0-3.503 1.216-6.471 3.647-8.902z"></path>
<path fill="#fff" style="fill: var(--color1, #fff)" d="M15.686 3.137c-3.503 0-6.471 1.216-8.902 3.647s-3.647 5.399-3.647 8.902c0 3.503 1.216 6.471 3.647 8.902s5.399 3.647 8.902 3.647c3.503 0 6.471-1.216 8.902-3.647s3.647-5.399 3.647-8.902c0-3.503-1.216-6.471-3.647-8.902s-5.399-3.647-8.902-3.647zM14.588 12.706c-0.606-0.606-0.606-1.59 0-2.196v0c0.606-0.606 1.59-0.606 2.196 0l3.846 3.845c0.735 0.735 0.735 1.927 0 2.662l-3.846 3.845c-0.606 0.607-1.59 0.607-2.196 0v0c-0.606-0.606-0.606-1.59 0-2.196l1.412-1.412h-5.020c-0.866 0-1.569-0.702-1.569-1.569v0c0-0.866 0.702-1.569 1.569-1.569h5.020l-1.412-1.412z"></path>
</symbol>
<symbol id="icon-Social-X-icon" viewBox="0 0 32 32">
<path fill="#fff" style="fill: var(--color1, #fff)" d="M16 0c8.837 0 16 7.163 16 16s-7.163 16-16 16c-8.837 0-16-7.163-16-16s7.163-16 16-16z"></path>
<path fill="#fff" style="fill: var(--color1, #fff)" d="M16.904 15.081l4.318-5.081h-1.023l-3.75 4.412-2.995-4.412h-3.454l4.529 6.672-4.529 5.328h1.023l3.96-4.659 3.163 4.659h3.454l-4.696-6.919zM15.502 16.73l-4.11-5.951h1.572l7.235 10.476h-1.572l-3.125-4.525z"></path>
<path fill="#000" style="fill: var(--color2, #000)" d="M16.904 15.081v1.6h0.74l0.479-0.564-1.219-1.036zM21.222 10l1.219 1.036 2.24-2.636h-3.46v1.6zM20.199 10v-1.6h-0.74l-0.479 0.564 1.219 1.036zM16.449 14.412l-1.324 0.899 1.181 1.74 1.362-1.602-1.219-1.036zM13.454 10l1.324-0.899-0.476-0.701h-0.848v1.6zM10 10v-1.6h-3.020l1.696 2.499 1.324-0.899zM14.529 16.672l1.219 1.036 0.788-0.928-0.684-1.007-1.324 0.899zM10 22l-1.219-1.036-2.241 2.636h3.46v-1.6zM11.023 22v1.6h0.74l0.479-0.564-1.219-1.036zM14.983 17.341l1.324-0.899-1.181-1.74-1.362 1.602 1.219 1.036zM18.146 22l-1.324 0.899 0.476 0.701h0.848v-1.6zM21.6 22v1.6h3.020l-1.696-2.499-1.324 0.899zM16.903 15.081v-1.6h-3.020l1.696 2.499 1.324-0.899zM15.502 16.73h1.6v-0.499l-0.284-0.41-1.316 0.909zM15.043 16.066v0zM11.392 10.78v-1.6h-3.050l1.733 2.509 1.316-0.909zM12.964 10.78l1.317-0.909-0.477-0.691h-0.84v1.6zM15.91 15.046v0zM16.369 15.71v0zM20.199 21.256v1.6h3.050l-1.733-2.509-1.316 0.909zM18.627 21.256l-1.317 0.909 0.477 0.691h0.839v-1.6zM15.502 16.731h-1.6v0.499l0.284 0.41 1.316-0.909zM18.123 16.117l4.318-5.081-2.438-2.072-4.318 5.081 2.438 2.072zM21.222 8.4h-1.023v3.2h1.023v-3.2zM18.979 8.964l-3.75 4.412 2.438 2.072 3.75-4.412-2.438-2.072zM17.773 13.513l-2.995-4.412-2.648 1.797 2.995 4.412 2.648-1.797zM13.454 8.4h-3.454v3.2h3.454v-3.2zM8.676 10.899l4.529 6.672 2.648-1.797-4.529-6.672-2.648 1.797zM13.31 15.635l-4.529 5.328 2.438 2.072 4.529-5.328-2.438-2.072zM10 23.6h1.023v-3.2h-1.023v3.2zM12.243 23.036l3.96-4.659-2.438-2.072-3.96 4.659 2.438 2.072zM13.659 18.24l3.163 4.659 2.648-1.797-3.163-4.659-2.648 1.797zM18.146 23.6h3.454v-3.2h-3.454v3.2zM22.924 21.101l-4.697-6.919-2.648 1.797 4.697 6.919 2.648-1.797zM16.903 16.681h0v-3.2h-0v3.2zM16.818 15.821l-0.459-0.664-2.633 1.819 0.459 0.664 2.633-1.819zM16.36 15.157l-3.651-5.286-2.633 1.818 3.651 5.286 2.633-1.818zM11.392 12.38h1.572v-3.2h-1.572v3.2zM11.647 11.689l2.946 4.266 2.633-1.818-2.946-4.266-2.633 1.818zM14.594 15.955l0.459 0.664 2.633-1.819-0.459-0.664-2.633 1.819zM15.053 16.62l3.83 5.545 2.633-1.819-3.83-5.545-2.633 1.819zM20.199 19.656h-1.572v3.2h1.572v-3.2zM19.944 20.346l-3.125-4.525-2.633 1.819 3.125 4.525 2.633-1.819zM17.102 16.731v0z"></path>
</symbol>
<symbol id="icon-Subscribe-arrow" viewBox="0 0 31 32">
<path d="M15.36 0.64c8.483 0 15.36 6.877 15.36 15.36s-6.877 15.36-15.36 15.36c-8.483 0-15.36-6.877-15.36-15.36s6.877-15.36 15.36-15.36z"></path>
<path fill="none" stroke="#fff" style="stroke: var(--color1, #fff)" stroke-linejoin="round" stroke-linecap="round" stroke-miterlimit="4" stroke-width="2.56" d="M8.96 22.4l12.8-12.8"></path>
<path fill="none" stroke="#fff" style="stroke: var(--color1, #fff)" stroke-linejoin="round" stroke-linecap="round" stroke-miterlimit="4" stroke-width="2.56" d="M21.76 21.12v-11.52h-11.52"></path>
</symbol>
<symbol id="icon-Subscribe-arrow_white" viewBox="0 0 31 32">
<path fill="#fff" style="fill: var(--color1, #fff)" d="M15.36 0.64c8.483 0 15.36 6.877 15.36 15.36s-6.877 15.36-15.36 15.36c-8.483 0-15.36-6.877-15.36-15.36s6.877-15.36 15.36-15.36z"></path>
<path fill="none" stroke="#000" style="stroke: var(--color2, #000)" stroke-linejoin="round" stroke-linecap="round" stroke-miterlimit="4" stroke-width="2.56" d="M8.96 22.4l12.8-12.8"></path>
<path fill="none" stroke="#000" style="stroke: var(--color2, #000)" stroke-linejoin="round" stroke-linecap="round" stroke-miterlimit="4" stroke-width="2.56" d="M21.76 21.12v-11.52h-11.52"></path>
</symbol>
<symbol id="icon-Useful-links-arrow" viewBox="0 0 31 32">
<path fill="none" stroke="#fff" style="stroke: var(--color1, #fff)" stroke-linejoin="round" stroke-linecap="round" stroke-miterlimit="4" stroke-width="2.56" d="M15.36 27.52c6.362 0 11.52-5.158 11.52-11.52s-5.158-11.52-11.52-11.52c-6.362 0-11.52 5.158-11.52 11.52s5.158 11.52 11.52 11.52z"></path>
<path fill="none" stroke="#fff" style="stroke: var(--color1, #fff)" stroke-linejoin="round" stroke-linecap="round" stroke-miterlimit="4" stroke-width="2.56" d="M19.2 12.16l-7.68 7.68"></path>
<path fill="none" stroke="#fff" style="stroke: var(--color1, #fff)" stroke-linejoin="round" stroke-linecap="round" stroke-miterlimit="4" stroke-width="2.56" d="M19.2 19.84v-7.68h-7.68"></path>
</symbol>
<symbol id="icon-work-video-conference" viewBox="0 0 32 32">
<path fill="#09aff4" style="fill: var(--color3, #09aff4)" d="M15.265 2.826c-1.193 0.033-2.134 0.944-2.101 2.034 0.036 1.269 1.342 2.14 2.65 1.855l-0.070-0.823c-0.015-0.136-0.003-0.274 0.035-0.406s0.102-0.255 0.188-0.362c0.086-0.107 0.192-0.196 0.312-0.263s0.252-0.108 0.389-0.123l0.811-0.070c-0.067-1.056-1.044-1.876-2.213-1.843z"></path>
<path fill="#09aff4" style="fill: var(--color3, #09aff4)" d="M14.136 24.133l0.694-1.957c0.181-0.526 0.257-1.084 0.224-1.639-0.040-1.891-0.096-3.215-0.634-5.124l1.621-0.136c0.024 0.023 0.047 0.047 0.071 0.070 0.134 0.129 0.297 0.225 0.475 0.279s0.367 0.065 0.55 0.032c0.183-0.033 0.356-0.11 0.504-0.223 0.138-0.108 0.198-0.181 0.29-0.321l5.197-0.437c0.266-0.022 0.529 0.062 0.733 0.234s0.331 0.418 0.354 0.683l0.565 6.633c0.022 0.266-0.062 0.529-0.234 0.733s-0.418 0.331-0.683 0.354l-9.726 0.82zM19.8 19.817l0.981 0.458-0.176-2.082-0.89 0.619c-0.031-0.196-0.136-0.373-0.292-0.495s-0.354-0.18-0.552-0.163l-1.898 0.164c-0.103 0.008-0.204 0.037-0.296 0.085s-0.174 0.113-0.24 0.192c-0.067 0.079-0.117 0.171-0.148 0.27s-0.042 0.203-0.032 0.306l0.076 0.88c0.008 0.103 0.038 0.204 0.085 0.296s0.113 0.174 0.192 0.24c0.079 0.066 0.171 0.117 0.27 0.148s0.203 0.042 0.306 0.032l1.894-0.158c0.103-0.009 0.204-0.038 0.295-0.086s0.173-0.113 0.24-0.192 0.117-0.171 0.148-0.27c0.025-0.079 0.037-0.162 0.036-0.245v0z"></path>
<path fill="#09aff4" style="fill: var(--color3, #09aff4)" d="M26.928 15.621c0.008 0.072 0.002 0.146-0.018 0.216s-0.054 0.135-0.1 0.192c-0.046 0.057-0.102 0.104-0.166 0.139s-0.134 0.057-0.207 0.064c-0.073 0.008-0.146 0.001-0.216-0.020s-0.135-0.055-0.192-0.102-0.103-0.103-0.138-0.167c-0.034-0.064-0.056-0.135-0.063-0.208l-0.088-0.832c-0.014-0.145 0.030-0.29 0.122-0.402s0.225-0.185 0.37-0.2c0.145-0.015 0.29 0.027 0.404 0.119s0.187 0.224 0.203 0.368l0.088 0.832z"></path>
<path fill="#e9e9e9" style="fill: var(--color4, #e9e9e9)" d="M20.838 5.595c0.047 0.11 0.083 0.225 0.106 0.343 0.091-0.191 0.145-0.398 0.158-0.609-0.094 0.103-0.182 0.191-0.264 0.266z"></path>
<path fill="#e9e9e9" style="fill: var(--color4, #e9e9e9)" d="M12.584 9.769c0.026 0.144 0.075 0.282 0.146 0.41 0.234 0 0.492-0.030 0.556-0.124 0.009-0.016 0.018-0.033 0.027-0.052-0.088 0.173-0.406-0.003-0.729-0.234z"></path>
<path fill="#e9e9e9" style="fill: var(--color4, #e9e9e9)" d="M4.549 16.52c-0.565-0.811-4.156 2.149-3.64 2.896l0.088 0.079c0.747 0.416 3.992-2.337 3.552-2.975z"></path>
<path fill="#e9e9e9" style="fill: var(--color4, #e9e9e9)" d="M10.693 26.969c-0.738 0.351 1.544 4.468 2.24 3.883 0.416-0.604-1.657-4.162-2.24-3.883z"></path>
<path fill="#e9e9e9" style="fill: var(--color4, #e9e9e9)" d="M3.751 19.094c-0.014 0.052-0.018 0.107-0.012 0.161 0.030 0.194 0.279 0.203 0.446 0.158-0.117-0.14-0.266-0.249-0.434-0.319z"></path>
<path fill="#e9e9e9" style="fill: var(--color4, #e9e9e9)" d="M5.363 17.51c0.115 0.143 0.234 0.285 0.34 0.416 0.018-0.051 0.029-0.104 0.033-0.158 0.003-0.046-0.006-0.091-0.026-0.132s-0.050-0.076-0.088-0.102c-0.038-0.026-0.081-0.042-0.127-0.046s-0.091 0.004-0.133 0.023z"></path>
<path fill="#e9e9e9" style="fill: var(--color4, #e9e9e9)" d="M10.887 11.36c-0.034 0.004-0.065 0.017-0.091 0.039s-0.045 0.051-0.054 0.083c-0.010 0.032-0.009 0.067 0.001 0.099s0.030 0.061 0.056 0.082c0.026 0.021 0.058 0.034 0.092 0.037s0.068-0.004 0.097-0.020c0.030-0.016 0.054-0.041 0.070-0.071s0.022-0.064 0.019-0.098c-0.002-0.022-0.009-0.044-0.019-0.064s-0.025-0.037-0.043-0.052c-0.018-0.014-0.038-0.025-0.059-0.031s-0.044-0.008-0.067-0.005z"></path>
<path fill="#e9e9e9" style="fill: var(--color4, #e9e9e9)" d="M9.673 12.771c-0.034 0.004-0.065 0.017-0.091 0.039s-0.045 0.051-0.054 0.083c-0.010 0.032-0.009 0.067 0.001 0.099s0.030 0.061 0.056 0.082c0.026 0.021 0.058 0.034 0.092 0.037s0.068-0.004 0.097-0.020c0.030-0.016 0.054-0.041 0.070-0.071s0.022-0.064 0.019-0.098c-0.002-0.022-0.009-0.044-0.020-0.064s-0.025-0.037-0.043-0.051c-0.018-0.014-0.038-0.025-0.059-0.031s-0.044-0.008-0.067-0.006z"></path>
<path fill="#e9e9e9" style="fill: var(--color4, #e9e9e9)" d="M10.393 14.635c-0.034 0.004-0.065 0.017-0.091 0.039s-0.045 0.051-0.055 0.083c-0.010 0.032-0.009 0.067 0.001 0.099s0.030 0.061 0.056 0.082c0.026 0.021 0.058 0.034 0.092 0.037s0.068-0.004 0.097-0.020c0.030-0.016 0.054-0.041 0.070-0.071s0.022-0.064 0.019-0.098c-0.002-0.022-0.009-0.044-0.020-0.064s-0.025-0.037-0.043-0.051c-0.017-0.014-0.038-0.025-0.059-0.031s-0.044-0.008-0.066-0.006z"></path>
<path fill="#e9e9e9" style="fill: var(--color4, #e9e9e9)" d="M8.814 12.449c-0.034 0.004-0.065 0.017-0.091 0.039s-0.045 0.051-0.055 0.083c-0.010 0.032-0.009 0.067 0.001 0.099s0.030 0.061 0.056 0.082c0.026 0.021 0.058 0.034 0.092 0.037s0.068-0.004 0.097-0.020c0.030-0.016 0.054-0.041 0.070-0.071s0.022-0.064 0.019-0.098c-0.002-0.022-0.009-0.044-0.020-0.064s-0.025-0.037-0.043-0.051c-0.017-0.014-0.038-0.025-0.059-0.031s-0.044-0.008-0.066-0.006z"></path>
<path fill="#e9e9e9" style="fill: var(--color4, #e9e9e9)" d="M12.333 12.027c-0.034 0.004-0.066 0.017-0.092 0.039s-0.045 0.051-0.054 0.083c-0.010 0.032-0.009 0.067 0.001 0.099s0.030 0.061 0.056 0.082c0.026 0.021 0.058 0.034 0.092 0.037s0.068-0.004 0.097-0.020c0.030-0.016 0.054-0.041 0.070-0.071s0.022-0.064 0.018-0.098c-0.002-0.022-0.009-0.044-0.020-0.064s-0.025-0.037-0.043-0.051c-0.017-0.014-0.038-0.025-0.059-0.031s-0.044-0.008-0.066-0.006z"></path>
<path fill="#e9e9e9" style="fill: var(--color4, #e9e9e9)" d="M11.343 13.411c-0.034 0.004-0.065 0.017-0.091 0.039s-0.045 0.051-0.054 0.083-0.009 0.067 0.001 0.099c0.010 0.032 0.030 0.061 0.056 0.082s0.058 0.034 0.092 0.037c0.034 0.003 0.068-0.004 0.097-0.020s0.054-0.041 0.070-0.071c0.016-0.030 0.022-0.064 0.018-0.098-0.002-0.022-0.009-0.044-0.020-0.064s-0.025-0.037-0.043-0.051-0.038-0.025-0.059-0.031c-0.022-0.006-0.044-0.008-0.066-0.006z"></path>
<path fill="#e9e9e9" style="fill: var(--color4, #e9e9e9)" d="M13.119 14.055c-0.034 0.004-0.066 0.017-0.092 0.039s-0.045 0.051-0.054 0.083-0.009 0.067 0.001 0.099c0.010 0.032 0.030 0.061 0.056 0.082s0.058 0.034 0.092 0.037c0.034 0.003 0.068-0.004 0.097-0.020s0.054-0.041 0.070-0.071c0.016-0.030 0.022-0.064 0.018-0.098-0.002-0.022-0.009-0.044-0.020-0.064s-0.025-0.037-0.043-0.051c-0.018-0.014-0.038-0.025-0.059-0.031s-0.044-0.008-0.066-0.006z"></path>
<path fill="#e9e9e9" style="fill: var(--color4, #e9e9e9)" d="M13.856 11.11c-0.034 0.004-0.066 0.017-0.092 0.039s-0.045 0.051-0.054 0.083-0.009 0.067 0.001 0.099c0.010 0.032 0.030 0.061 0.056 0.082s0.058 0.034 0.092 0.037c0.034 0.003 0.068-0.004 0.097-0.020s0.054-0.041 0.070-0.071c0.016-0.030 0.022-0.064 0.018-0.098-0.002-0.022-0.009-0.044-0.019-0.064s-0.025-0.037-0.043-0.052-0.038-0.025-0.059-0.031c-0.022-0.006-0.044-0.008-0.067-0.005z"></path>
<path fill="#e9e9e9" style="fill: var(--color4, #e9e9e9)" d="M15.447 13.982c-0.034 0.004-0.066 0.017-0.092 0.039s-0.045 0.051-0.054 0.083c-0.010 0.032-0.009 0.067 0.001 0.099s0.029 0.061 0.056 0.082c0.026 0.021 0.058 0.034 0.092 0.037s0.068-0.004 0.097-0.020c0.030-0.016 0.054-0.041 0.070-0.071s0.022-0.064 0.019-0.098c-0.005-0.045-0.027-0.086-0.063-0.115s-0.080-0.042-0.125-0.037z"></path>
<path fill="#e9e9e9" style="fill: var(--color4, #e9e9e9)" d="M15.453 12.388c0.022-0.002 0.044-0.009 0.064-0.020s0.037-0.025 0.051-0.043c0.014-0.017 0.025-0.038 0.031-0.059s0.008-0.044 0.006-0.066c-0.006-0.044-0.029-0.084-0.064-0.112s-0.079-0.040-0.124-0.035c-0.044 0.005-0.085 0.027-0.113 0.061s-0.042 0.078-0.039 0.123c0.002 0.022 0.009 0.044 0.020 0.064s0.025 0.037 0.043 0.051c0.018 0.014 0.038 0.025 0.059 0.031s0.044 0.008 0.066 0.006z"></path>
<path fill="#e9e9e9" style="fill: var(--color4, #e9e9e9)" d="M17.308 14.343c-0.034 0.004-0.065 0.017-0.092 0.039s-0.045 0.051-0.054 0.083c-0.010 0.032-0.009 0.067 0.001 0.099s0.029 0.061 0.056 0.082c0.026 0.021 0.058 0.034 0.092 0.037s0.068-0.004 0.097-0.020c0.030-0.016 0.054-0.041 0.070-0.071s0.022-0.064 0.018-0.098c-0.002-0.022-0.009-0.044-0.020-0.064s-0.025-0.037-0.043-0.051c-0.018-0.014-0.038-0.025-0.059-0.031s-0.044-0.008-0.066-0.006z"></path>
<path fill="#e9e9e9" style="fill: var(--color4, #e9e9e9)" d="M17.521 12.534c-0.034 0.004-0.066 0.017-0.092 0.039s-0.045 0.051-0.054 0.083c-0.010 0.032-0.009 0.067 0.001 0.099s0.030 0.061 0.056 0.082c0.026 0.021 0.058 0.034 0.092 0.037s0.068-0.004 0.097-0.020c0.030-0.016 0.054-0.041 0.070-0.071s0.022-0.064 0.018-0.098c-0.002-0.022-0.009-0.044-0.020-0.064s-0.025-0.037-0.043-0.051c-0.018-0.014-0.038-0.025-0.059-0.031s-0.044-0.008-0.066-0.006z"></path>
<path fill="#e9e9e9" style="fill: var(--color4, #e9e9e9)" d="M19.039 11.927c-0.004-0.034-0.017-0.066-0.039-0.092s-0.050-0.045-0.083-0.054-0.067-0.009-0.099 0.001c-0.032 0.010-0.061 0.030-0.082 0.056s-0.034 0.058-0.037 0.092c-0.003 0.034 0.004 0.068 0.020 0.097s0.041 0.054 0.071 0.070c0.030 0.016 0.064 0.022 0.098 0.019 0.022-0.002 0.044-0.009 0.064-0.020s0.037-0.025 0.051-0.043c0.014-0.018 0.025-0.038 0.031-0.059s0.008-0.044 0.006-0.066z"></path>
<path fill="#e9e9e9" style="fill: var(--color4, #e9e9e9)" d="M24.105 2.428c-0.019-0.235-0.12-0.456-0.287-0.623s-0.388-0.269-0.623-0.288c-0.235-0.019-0.47 0.047-0.661 0.186s-0.327 0.341-0.382 0.57c-0.274-0.128-0.577-0.183-0.878-0.159s-0.592 0.124-0.844 0.292-0.456 0.398-0.592 0.668c-0.137 0.27-0.202 0.57-0.189 0.872 0.366-0.099 0.741-0.156 1.12-0.17 0.020 0.124 0.049 0.247 0.085 0.368 0.033 0.076 0.085 0.082 0.176-0.058 0.204-0.294 0.616 0.161 0.134 0.513 0.208 0.361 0.473 0.686 0.784 0.962 0.381-0.123 0.71-0.371 0.931-0.705s0.324-0.733 0.289-1.132c-0.006-0.073-0.017-0.146-0.032-0.218 0.022 0 0.044-0.001 0.065-0.004 0.13-0.011 0.256-0.048 0.372-0.108s0.219-0.142 0.302-0.242c0.084-0.1 0.148-0.215 0.187-0.34s0.054-0.255 0.043-0.385z"></path>
<path fill="#e9e9e9" style="fill: var(--color4, #e9e9e9)" d="M11.24 18.423l0.033 1.232 0.434-0.392c-0.189-0.26-0.346-0.542-0.467-0.84z"></path>
<path fill="#e9e9e9" style="fill: var(--color4, #e9e9e9)" d="M14.026 12.798l0.431 0.613 0.024 0.786-0.455-1.4z"></path>
<path fill="#e9e9e9" style="fill: var(--color4, #e9e9e9)" d="M13.283 8.642c0.053-0.010 0.1-0.038 0.134-0.079s0.052-0.094 0.051-0.148c-0.001-0.054-0.021-0.105-0.057-0.145s-0.084-0.066-0.138-0.074c0.041-0.030 0.071-0.073 0.085-0.122s0.010-0.101-0.009-0.148-0.054-0.086-0.099-0.111c-0.045-0.025-0.096-0.034-0.146-0.026 0.026-0.043 0.037-0.093 0.031-0.142s-0.027-0.096-0.062-0.132c-0.035-0.036-0.080-0.059-0.13-0.067s-0.1 0.002-0.144 0.026c0.010-0.051 0.003-0.104-0.021-0.15s-0.063-0.083-0.11-0.104c-0.048-0.021-0.101-0.025-0.151-0.011s-0.094 0.044-0.125 0.086c-0.005-0.055-0.029-0.106-0.067-0.145s-0.090-0.063-0.144-0.069c-0.055-0.005-0.11 0.008-0.155 0.039s-0.079 0.076-0.094 0.129c-0.022-0.047-0.058-0.086-0.105-0.109s-0.099-0.030-0.15-0.019-0.096 0.039-0.129 0.080c-0.033 0.040-0.050 0.091-0.050 0.143-0.038-0.033-0.085-0.052-0.135-0.055s-0.099 0.011-0.141 0.039c-0.041 0.028-0.072 0.069-0.088 0.116s-0.016 0.099 0 0.146c-0.047-0.018-0.099-0.019-0.147-0.004s-0.090 0.046-0.118 0.087c-0.029 0.042-0.043 0.091-0.040 0.142s0.023 0.098 0.056 0.136c-0.054-0.003-0.106 0.013-0.149 0.045s-0.073 0.079-0.085 0.131c-0.012 0.052-0.005 0.107 0.019 0.155s0.065 0.085 0.115 0.106c-0.053 0.010-0.1 0.039-0.133 0.081s-0.051 0.094-0.050 0.148c0.001 0.054 0.022 0.105 0.058 0.145s0.085 0.066 0.138 0.073c-0.040 0.031-0.069 0.074-0.082 0.123s-0.009 0.101 0.011 0.147c0.020 0.046 0.055 0.085 0.099 0.109s0.095 0.033 0.145 0.025c-0.025 0.043-0.035 0.093-0.029 0.142s0.028 0.095 0.063 0.131c0.035 0.036 0.080 0.059 0.13 0.066s0.1-0.002 0.143-0.027c-0.010 0.051-0.002 0.104 0.022 0.149s0.063 0.082 0.111 0.103c0.048 0.021 0.101 0.024 0.151 0.010s0.094-0.044 0.124-0.086c0.003 0.038 0.015 0.075 0.035 0.107s0.048 0.059 0.081 0.077c0.033 0.019 0.070 0.029 0.108 0.030s0.076-0.008 0.109-0.025c0.027-0.033 0.4-0.492 0.531-0.659-0.322-0.364-0.055-0.601 0.118-0.361 0.091 0.131 0.224 0.094 0.146-0.295 0.101-0.044 0.197-0.097 0.288-0.158 0.064 0.246 0.112 0.455 0.152 0.631 0.046-0.012 0.087-0.038 0.118-0.075s0.049-0.082 0.052-0.129c0.003-0.048-0.008-0.095-0.033-0.136s-0.062-0.073-0.106-0.091z"></path>
</symbol>
<symbol id="icon-YouTube-icon" viewBox="0 0 32 32">
<path fill="#fff" style="fill: var(--color1, #fff)" d="M16 0c8.837 0 16 7.163 16 16s-7.163 16-16 16c-8.837 0-16-7.163-16-16s7.163-16 16-16z"></path>
<path fill="#fff" style="fill: var(--color1, #fff); stroke: var(--color2, #000)" stroke="#000" stroke-linejoin="miter" stroke-linecap="butt" stroke-miterlimit="4" stroke-width="1.6" d="M9.934 20.488l-0.002-0c-0.403-0.109-0.72-0.419-0.838-0.818-0.212-1.21-0.314-2.436-0.306-3.664h0v-0.009c-0.006-1.23 0.1-2.458 0.314-3.669 0.122-0.403 0.44-0.717 0.844-0.836 0.226-0.058 0.682-0.114 1.307-0.159 0.611-0.044 1.322-0.073 2.008-0.093 1.372-0.040 2.621-0.040 2.721-0.040h0.034l0.045 0c0.039 0 0.095 0 0.166 0.001 0.142 0.001 0.344 0.003 0.588 0.006 0.49 0.006 1.149 0.018 1.845 0.040 0.697 0.022 1.424 0.055 2.049 0.102 0.648 0.049 1.118 0.11 1.344 0.172l0.002 0.001c0.403 0.109 0.72 0.42 0.839 0.819 0.218 1.212 0.321 2.443 0.306 3.675l-0 0.007 0 0.007c0.005 1.229-0.1 2.455-0.315 3.665-0.12 0.399-0.437 0.708-0.84 0.818-0.223 0.059-0.681 0.116-1.312 0.162-0.61 0.044-1.321 0.075-2.008 0.095-1.372 0.041-2.621 0.042-2.721 0.042h-0.033l-0.045-0c-0.039-0-0.094-0-0.165-0.001-0.141-0.001-0.343-0.003-0.587-0.006-0.488-0.006-1.147-0.018-1.842-0.040-0.696-0.022-1.422-0.055-2.048-0.102-0.648-0.049-1.121-0.11-1.351-0.172zM14.804 12.911l-1.198-0.69-0.001 1.383-0.004 4.8-0.001 1.385 6.574-3.784-5.369-3.094z"></path>
</symbol>
</defs>
</svg>
