<!-- Generated by IcoMoon.io -->
<svg version="1.1" xmlns="http://www.w3.org/2000/svg" width="32" height="32" viewBox="0 0 32 32">
<path fill="#fff" d="M16 0c8.837 0 16 7.163 16 16s-7.163 16-16 16c-8.837 0-16-7.163-16-16s7.163-16 16-16z"></path>
<path fill="#fff" stroke="#000" stroke-linejoin="miter" stroke-linecap="butt" stroke-miterlimit="4" stroke-width="1.6" d="M9.934 20.488l-0.002-0c-0.403-0.109-0.72-0.419-0.838-0.818-0.212-1.21-0.314-2.436-0.306-3.664h0v-0.009c-0.006-1.23 0.1-2.458 0.314-3.669 0.122-0.403 0.44-0.717 0.844-0.836 0.226-0.058 0.682-0.114 1.307-0.159 0.611-0.044 1.322-0.073 2.008-0.093 1.372-0.040 2.621-0.040 2.721-0.040h0.034l0.045 0c0.039 0 0.095 0 0.166 0.001 0.142 0.001 0.344 0.003 0.588 0.006 0.49 0.006 1.149 0.018 1.845 0.040 0.697 0.022 1.424 0.055 2.049 0.102 0.648 0.049 1.118 0.11 1.344 0.172l0.002 0.001c0.403 0.109 0.72 0.42 0.839 0.819 0.218 1.212 0.321 2.443 0.306 3.675l-0 0.007 0 0.007c0.005 1.229-0.1 2.455-0.315 3.665-0.12 0.399-0.437 0.708-0.84 0.818-0.223 0.059-0.681 0.116-1.312 0.162-0.61 0.044-1.321 0.075-2.008 0.095-1.372 0.041-2.621 0.042-2.721 0.042h-0.033l-0.045-0c-0.039-0-0.094-0-0.165-0.001-0.141-0.001-0.343-0.003-0.587-0.006-0.488-0.006-1.147-0.018-1.842-0.040-0.696-0.022-1.422-0.055-2.048-0.102-0.648-0.049-1.121-0.11-1.351-0.172zM14.804 12.911l-1.198-0.69-0.001 1.383-0.004 4.8-0.001 1.385 6.574-3.784-5.369-3.094z"></path>
</svg>
